<?xml version="1.0" encoding="UTF-8" standalone="no"?>
<svg
   xmlns:dc="http://purl.org/dc/elements/1.1/"
   xmlns:cc="http://creativecommons.org/ns#"
   xmlns:rdf="http://www.w3.org/1999/02/22-rdf-syntax-ns#"
   xmlns:svg="http://www.w3.org/2000/svg"
   xmlns="http://www.w3.org/2000/svg"
   xmlns:sodipodi="http://sodipodi.sourceforge.net/DTD/sodipodi-0.dtd"
   xmlns:inkscape="http://www.inkscape.org/namespaces/inkscape"
   version="1.1"
   x="0px"
   y="0px"
   viewBox="0 0 79.756248 79.074997"
   xml:space="preserve"
   id="svg845"
   sodipodi:docname="mute.svg"
   width="79.756248"
   height="79.074997"
   inkscape:version="1.0beta2 (2b71d25, 2019-12-03)"><metadata
     id="metadata851"><rdf:RDF><cc:Work
         rdf:about=""><dc:format>image/svg+xml</dc:format><dc:type
           rdf:resource="http://purl.org/dc/dcmitype/StillImage" /></cc:Work></rdf:RDF></metadata><defs
     id="defs849" /><sodipodi:namedview
     pagecolor="#ffffff"
     bordercolor="#666666"
     inkscape:document-rotation="0"
     borderopacity="1"
     objecttolerance="10"
     gridtolerance="10"
     guidetolerance="10"
     inkscape:pageopacity="0"
     inkscape:pageshadow="2"
     inkscape:window-width="1685"
     inkscape:window-height="819"
     id="namedview847"
     showgrid="false"
     inkscape:zoom="5.4857143"
     inkscape:cx="37.00625"
     inkscape:cy="47.926042"
     inkscape:window-x="0"
     inkscape:window-y="23"
     inkscape:window-maximized="0"
     inkscape:current-layer="svg845" /><g
     id="g839"
     transform="translate(-10.9,-10.225)"><path
       style="fill:#fcd307;fill-opacity:1"
       d="M 27.7,68.1 69.6,29.3 V 13.2 c 0,-1.1 -0.6,-2.1 -1.5,-2.6 -0.9,-0.5 -2.1,-0.5 -3,0 l -33,19.3 H 13.9 c -1.7,0 -3,1.3 -3,3 v 32.2 c 0,1.7 1.3,3 3,3 z"
       id="path833"
       inkscape:connector-curvature="0" /><path
       style="fill:#fcd307;fill-opacity:1"
       d="m 65.2,87.5 c 0.4,0.2 0.9,0.3 1.4,0.3 0.5,0 1.1,-0.1 1.5,-0.4 0.9,-0.5 1.5,-1.5 1.5,-2.6 V 51.5 46 43 L 37.4,72.8 Z"
       id="path835"
       inkscape:connector-curvature="0" /><path
       style="fill:#fcd307;fill-opacity:1"
       d="m 89.9,17.4 c -1.1,-1.2 -3,-1.3 -4.2,-0.2 L 13.3,84.1 c -1.2,1.1 -1.3,3 -0.2,4.2 0.6,0.6 1.4,1 2.2,1 0.7,0 1.5,-0.3 2,-0.8 L 89.6,21.6 c 1.3,-1.1 1.4,-3 0.3,-4.2 z"
       id="path837"
       inkscape:connector-curvature="0" /></g></svg>
