<?xml version="1.0" encoding="UTF-8" standalone="no"?>
<svg
   xmlns:dc="http://purl.org/dc/elements/1.1/"
   xmlns:cc="http://creativecommons.org/ns#"
   xmlns:rdf="http://www.w3.org/1999/02/22-rdf-syntax-ns#"
   xmlns:svg="http://www.w3.org/2000/svg"
   xmlns="http://www.w3.org/2000/svg"
   xmlns:sodipodi="http://sodipodi.sourceforge.net/DTD/sodipodi-0.dtd"
   xmlns:inkscape="http://www.inkscape.org/namespaces/inkscape"
   inkscape:version="1.0beta2 (2b71d25, 2019-12-03)"
   height="79.074997"
   width="79.756248"
   sodipodi:docname="unmute.svg"
   id="svg845"
   xml:space="preserve"
   viewBox="0 0 79.756248 79.074997"
   y="0px"
   x="0px"
   version="1.1"><metadata
     id="metadata851"><rdf:RDF><cc:Work
         rdf:about=""><dc:format>image/svg+xml</dc:format><dc:type
           rdf:resource="http://purl.org/dc/dcmitype/StillImage" /></cc:Work></rdf:RDF></metadata><defs
     id="defs849" /><sodipodi:namedview
     inkscape:current-layer="g839"
     inkscape:window-maximized="0"
     inkscape:window-y="23"
     inkscape:window-x="0"
     inkscape:cy="24.188145"
     inkscape:cx="25.803561"
     inkscape:zoom="5.1837092"
     showgrid="false"
     id="namedview847"
     inkscape:window-height="819"
     inkscape:window-width="1685"
     inkscape:pageshadow="2"
     inkscape:pageopacity="0"
     guidetolerance="10"
     gridtolerance="10"
     objecttolerance="10"
     borderopacity="1"
     inkscape:document-rotation="0"
     bordercolor="#666666"
     pagecolor="#ffffff" /><g
     transform="translate(-10.9,-10.225)"
     id="g839"><path
       transform="translate(10.9,10.225)"
       d="M 55.699219 0 C 55.174219 0 54.649219 0.125 54.199219 0.375 L 21.199219 19.675781 L 3 19.675781 C 1.3 19.675781 0 20.975781 0 22.675781 L 0 54.875 C 0 56.575 1.3 57.875 3 57.875 L 16.800781 57.875 L 54.300781 77.275391 C 54.700781 77.475391 55.199219 77.574219 55.699219 77.574219 C 56.199219 77.574219 56.799219 77.475781 57.199219 77.175781 C 58.099219 76.675781 58.699219 75.674219 58.699219 74.574219 L 58.699219 41.275391 L 58.699219 35.775391 L 58.699219 19.074219 L 58.699219 17.074219 L 58.699219 2.9746094 C 58.699219 1.8746094 58.099219 0.875 57.199219 0.375 C 56.749219 0.125 56.224219 0 55.699219 0 z "
       style="fill:#fcd307;fill-opacity:1"
       id="path833" /></g></svg>
